<?xml version="1.0" encoding="UTF-8"?>
<svg xmlns="http://www.w3.org/2000/svg" version="1.1" width="80" height="80" viewBox="0 0 80 80"><rect x="0" y="0" width="80" height="80" fill="#ffffff"/><g transform="scale(2.424)"><g transform="translate(4,4)"><path fill-rule="evenodd" d="M8 0.125L8 0.875A0.125 0.125 0 0 0 8.125 1L8.875 1A0.125 0.125 0 0 1 9 1.125L9 1.875A0.125 0.125 0 0 0 9.125 2L9.875 2A0.125 0.125 0 0 1 10 2.125L10 2.875A0.125 0.125 0 0 0 10.125 3L10.875 3A0.125 0.125 0 0 0 11 2.875L11 1.125A0.125 0.125 0 0 1 11.125 1L13.875 1A0.125 0.125 0 0 1 14 1.125L14 1.875A0.125 0.125 0 0 1 13.875 2L12.125 2A0.125 0.125 0 0 0 12 2.125L12 3.875A0.125 0.125 0 0 1 11.875 4L11.125 4A0.125 0.125 0 0 0 11 4.125L11 4.875A0.125 0.125 0 0 1 10.875 5L10.125 5A0.125 0.125 0 0 1 10 4.875L10 4.125A0.125 0.125 0 0 0 9.875 4L9.125 4A0.125 0.125 0 0 0 9 4.125L9 4.875A0.125 0.125 0 0 0 9.125 5L9.875 5A0.125 0.125 0 0 1 10 5.125L10 7.875A0.125 0.125 0 0 1 9.875 8L9.125 8A0.125 0.125 0 0 1 9 7.875L9 6.125A0.125 0.125 0 0 0 8.875 6L8.125 6A0.125 0.125 0 0 0 8 6.125L8 7.875A0.125 0.125 0 0 0 8.125 8L8.875 8A0.125 0.125 0 0 1 9 8.125L9 8.875A0.125 0.125 0 0 1 8.875 9L8.125 9A0.125 0.125 0 0 0 8 9.125L8 9.875A0.125 0.125 0 0 0 8.125 10L9.875 10A0.125 0.125 0 0 1 10 10.125L10 10.875A0.125 0.125 0 0 1 9.875 11L7.125 11A0.125 0.125 0 0 1 7 10.875L7 10.125A0.125 0.125 0 0 0 6.875 10L6.125 10A0.125 0.125 0 0 1 6 9.875L6 9.125A0.125 0.125 0 0 1 6.125 9L6.875 9A0.125 0.125 0 0 0 7 8.875L7 8.125A0.125 0.125 0 0 0 6.875 8L6.125 8A0.125 0.125 0 0 0 6 8.125L6 8.875A0.125 0.125 0 0 1 5.875 9L5.125 9A0.125 0.125 0 0 1 5 8.875L5 8.125A0.125 0.125 0 0 0 4.875 8L3.125 8A0.125 0.125 0 0 0 3 8.125L3 8.875A0.125 0.125 0 0 1 2.875 9L2.125 9A0.125 0.125 0 0 1 2 8.875L2 8.125A0.125 0.125 0 0 0 1.875 8L0.125 8A0.125 0.125 0 0 0 0 8.125L0 10.875A0.125 0.125 0 0 0 0.125 11L0.875 11A0.125 0.125 0 0 1 1 11.125L1 11.875A0.125 0.125 0 0 1 0.875 12L0.125 12A0.125 0.125 0 0 0 0 12.125L0 16.875A0.125 0.125 0 0 0 0.125 17L0.875 17A0.125 0.125 0 0 0 1 16.875L1 15.125A0.125 0.125 0 0 1 1.125 15L1.875 15A0.125 0.125 0 0 1 2 15.125L2 16.875A0.125 0.125 0 0 0 2.125 17L2.875 17A0.125 0.125 0 0 0 3 16.875L3 16.125A0.125 0.125 0 0 1 3.125 16L3.875 16A0.125 0.125 0 0 1 4 16.125L4 16.875A0.125 0.125 0 0 0 4.125 17L4.875 17A0.125 0.125 0 0 0 5 16.875L5 16.125A0.125 0.125 0 0 1 5.125 16L5.875 16A0.125 0.125 0 0 1 6 16.125L6 16.875A0.125 0.125 0 0 0 6.125 17L7.875 17A0.125 0.125 0 0 1 8 17.125L8 17.875A0.125 0.125 0 0 0 8.125 18L8.875 18A0.125 0.125 0 0 1 9 18.125L9 18.875A0.125 0.125 0 0 0 9.125 19L11.875 19A0.125 0.125 0 0 1 12 19.125L12 20.875A0.125 0.125 0 0 0 12.125 21L12.875 21A0.125 0.125 0 0 1 13 21.125L13 21.875A0.125 0.125 0 0 1 12.875 22L12.125 22A0.125 0.125 0 0 0 12 22.125L12 22.875A0.125 0.125 0 0 0 12.125 23L13.875 23A0.125 0.125 0 0 1 14 23.125L14 23.875A0.125 0.125 0 0 1 13.875 24L12.125 24A0.125 0.125 0 0 0 12 24.125L12 24.875A0.125 0.125 0 0 0 12.125 25L16.875 25A0.125 0.125 0 0 0 17 24.875L17 24.125A0.125 0.125 0 0 1 17.125 24L17.875 24A0.125 0.125 0 0 0 18 23.875L18 22.125A0.125 0.125 0 0 1 18.125 22L18.875 22A0.125 0.125 0 0 0 19 21.875L19 21.125A0.125 0.125 0 0 1 19.125 21L20.875 21A0.125 0.125 0 0 0 21 20.875L21 16.125A0.125 0.125 0 0 1 21.125 16L21.875 16A0.125 0.125 0 0 1 22 16.125L22 17.875A0.125 0.125 0 0 0 22.125 18L23.875 18A0.125 0.125 0 0 1 24 18.125L24 18.875A0.125 0.125 0 0 1 23.875 19L23.125 19A0.125 0.125 0 0 0 23 19.125L23 21.875A0.125 0.125 0 0 1 22.875 22L20.125 22A0.125 0.125 0 0 0 20 22.125L20 22.875A0.125 0.125 0 0 1 19.875 23L19.125 23A0.125 0.125 0 0 0 19 23.125L19 23.875A0.125 0.125 0 0 0 19.125 24L20.875 24A0.125 0.125 0 0 1 21 24.125L21 24.875A0.125 0.125 0 0 0 21.125 25L21.875 25A0.125 0.125 0 0 0 22 24.875L22 24.125A0.125 0.125 0 0 1 22.125 24L23.875 24A0.125 0.125 0 0 1 24 24.125L24 24.875A0.125 0.125 0 0 0 24.125 25L24.875 25A0.125 0.125 0 0 0 25 24.875L25 20.125A0.125 0.125 0 0 0 24.875 20L24.125 20A0.125 0.125 0 0 1 24 19.875L24 19.125A0.125 0.125 0 0 1 24.125 19L24.875 19A0.125 0.125 0 0 0 25 18.875L25 18.125A0.125 0.125 0 0 0 24.875 18L24.125 18A0.125 0.125 0 0 1 24 17.875L24 16.125A0.125 0.125 0 0 1 24.125 16L24.875 16A0.125 0.125 0 0 0 25 15.875L25 14.125A0.125 0.125 0 0 0 24.875 14L24.125 14A0.125 0.125 0 0 1 24 13.875L24 13.125A0.125 0.125 0 0 1 24.125 13L24.875 13A0.125 0.125 0 0 0 25 12.875L25 10.125A0.125 0.125 0 0 0 24.875 10L24.125 10A0.125 0.125 0 0 1 24 9.875L24 9.125A0.125 0.125 0 0 1 24.125 9L24.875 9A0.125 0.125 0 0 0 25 8.875L25 8.125A0.125 0.125 0 0 0 24.875 8L24.125 8A0.125 0.125 0 0 0 24 8.125L24 8.875A0.125 0.125 0 0 1 23.875 9L19.125 9A0.125 0.125 0 0 1 19 8.875L19 8.125A0.125 0.125 0 0 0 18.875 8L18.125 8A0.125 0.125 0 0 0 18 8.125L18 8.875A0.125 0.125 0 0 0 18.125 9L18.875 9A0.125 0.125 0 0 1 19 9.125L19 9.875A0.125 0.125 0 0 0 19.125 10L19.875 10A0.125 0.125 0 0 1 20 10.125L20 10.875A0.125 0.125 0 0 0 20.125 11L20.875 11A0.125 0.125 0 0 1 21 11.125L21 11.875A0.125 0.125 0 0 0 21.125 12L23.875 12A0.125 0.125 0 0 1 24 12.125L24 12.875A0.125 0.125 0 0 1 23.875 13L23.125 13A0.125 0.125 0 0 0 23 13.125L23 13.875A0.125 0.125 0 0 1 22.875 14L21.125 14A0.125 0.125 0 0 1 21 13.875L21 13.125A0.125 0.125 0 0 0 20.875 13L20.125 13A0.125 0.125 0 0 0 20 13.125L20 14.875A0.125 0.125 0 0 1 19.875 15L19.125 15A0.125 0.125 0 0 0 19 15.125L19 15.875A0.125 0.125 0 0 1 18.875 16L17.125 16A0.125 0.125 0 0 1 17 15.875L17 15.125A0.125 0.125 0 0 1 17.125 15L17.875 15A0.125 0.125 0 0 0 18 14.875L18 14.125A0.125 0.125 0 0 0 17.875 14L17.125 14A0.125 0.125 0 0 1 17 13.875L17 11.125A0.125 0.125 0 0 1 17.125 11L17.875 11A0.125 0.125 0 0 1 18 11.125L18 12.875A0.125 0.125 0 0 0 18.125 13L18.875 13A0.125 0.125 0 0 0 19 12.875L19 11.125A0.125 0.125 0 0 0 18.875 11L18.125 11A0.125 0.125 0 0 1 18 10.875L18 10.125A0.125 0.125 0 0 0 17.875 10L17.125 10A0.125 0.125 0 0 0 17 10.125L17 10.875A0.125 0.125 0 0 1 16.875 11L16.125 11A0.125 0.125 0 0 1 16 10.875L16 9.125A0.125 0.125 0 0 1 16.125 9L16.875 9A0.125 0.125 0 0 0 17 8.875L17 6.125A0.125 0.125 0 0 0 16.875 6L16.125 6A0.125 0.125 0 0 0 16 6.125L16 6.875A0.125 0.125 0 0 1 15.875 7L15.125 7A0.125 0.125 0 0 1 15 6.875L15 3.125A0.125 0.125 0 0 1 15.125 3L16.875 3A0.125 0.125 0 0 0 17 2.875L17 2.125A0.125 0.125 0 0 0 16.875 2L15.125 2A0.125 0.125 0 0 1 15 1.875L15 1.125A0.125 0.125 0 0 0 14.875 1L14.125 1A0.125 0.125 0 0 1 14 0.875L14 0.125A0.125 0.125 0 0 0 13.875 0L11.125 0A0.125 0.125 0 0 0 11 0.125L11 0.875A0.125 0.125 0 0 1 10.875 1L9.125 1A0.125 0.125 0 0 1 9 0.875L9 0.125A0.125 0.125 0 0 0 8.875 0L8.125 0A0.125 0.125 0 0 0 8 0.125ZM12 4.125L12 4.875A0.125 0.125 0 0 1 11.875 5L11.125 5A0.125 0.125 0 0 0 11 5.125L11 6.875A0.125 0.125 0 0 0 11.125 7L11.875 7A0.125 0.125 0 0 1 12 7.125L12 8.875A0.125 0.125 0 0 1 11.875 9L10.125 9A0.125 0.125 0 0 0 10 9.125L10 9.875A0.125 0.125 0 0 0 10.125 10L11.875 10A0.125 0.125 0 0 1 12 10.125L12 10.875A0.125 0.125 0 0 0 12.125 11L12.875 11A0.125 0.125 0 0 1 13 11.125L13 12.875A0.125 0.125 0 0 1 12.875 13L11.125 13A0.125 0.125 0 0 1 11 12.875L11 12.125A0.125 0.125 0 0 0 10.875 12L10.125 12A0.125 0.125 0 0 0 10 12.125L10 13.875A0.125 0.125 0 0 1 9.875 14L8.125 14A0.125 0.125 0 0 1 8 13.875L8 13.125A0.125 0.125 0 0 1 8.125 13L8.875 13A0.125 0.125 0 0 0 9 12.875L9 12.125A0.125 0.125 0 0 0 8.875 12L7.125 12A0.125 0.125 0 0 1 7 11.875L7 11.125A0.125 0.125 0 0 0 6.875 11L5.125 11A0.125 0.125 0 0 1 5 10.875L5 9.125A0.125 0.125 0 0 0 4.875 9L4.125 9A0.125 0.125 0 0 0 4 9.125L4 9.875A0.125 0.125 0 0 1 3.875 10L3.125 10A0.125 0.125 0 0 0 3 10.125L3 10.875A0.125 0.125 0 0 1 2.875 11L2.125 11A0.125 0.125 0 0 1 2 10.875L2 9.125A0.125 0.125 0 0 0 1.875 9L1.125 9A0.125 0.125 0 0 0 1 9.125L1 10.875A0.125 0.125 0 0 0 1.125 11L1.875 11A0.125 0.125 0 0 1 2 11.125L2 11.875A0.125 0.125 0 0 1 1.875 12L1.125 12A0.125 0.125 0 0 0 1 12.125L1 13.875A0.125 0.125 0 0 0 1.125 14L1.875 14A0.125 0.125 0 0 1 2 14.125L2 14.875A0.125 0.125 0 0 0 2.125 15L3.875 15A0.125 0.125 0 0 1 4 15.125L4 15.875A0.125 0.125 0 0 0 4.125 16L4.875 16A0.125 0.125 0 0 0 5 15.875L5 15.125A0.125 0.125 0 0 0 4.875 15L4.125 15A0.125 0.125 0 0 1 4 14.875L4 13.125A0.125 0.125 0 0 1 4.125 13L5.875 13A0.125 0.125 0 0 1 6 13.125L6 13.875A0.125 0.125 0 0 0 6.125 14L7.875 14A0.125 0.125 0 0 1 8 14.125L8 14.875A0.125 0.125 0 0 0 8.125 15L10.875 15A0.125 0.125 0 0 0 11 14.875L11 14.125A0.125 0.125 0 0 1 11.125 14L12.875 14A0.125 0.125 0 0 1 13 14.125L13 14.875A0.125 0.125 0 0 1 12.875 15L12.125 15A0.125 0.125 0 0 0 12 15.125L12 15.875A0.125 0.125 0 0 1 11.875 16L11.125 16A0.125 0.125 0 0 0 11 16.125L11 16.875A0.125 0.125 0 0 0 11.125 17L12.875 17A0.125 0.125 0 0 0 13 16.875L13 16.125A0.125 0.125 0 0 1 13.125 16L13.875 16A0.125 0.125 0 0 1 14 16.125L14 19.875A0.125 0.125 0 0 1 13.875 20L13.125 20A0.125 0.125 0 0 0 13 20.125L13 20.875A0.125 0.125 0 0 0 13.125 21L14.875 21A0.125 0.125 0 0 0 15 20.875L15 19.125A0.125 0.125 0 0 1 15.125 19L15.875 19A0.125 0.125 0 0 0 16 18.875L16 18.125A0.125 0.125 0 0 0 15.875 18L15.125 18A0.125 0.125 0 0 1 15 17.875L15 15.125A0.125 0.125 0 0 0 14.875 15L14.125 15A0.125 0.125 0 0 1 14 14.875L14 13.125A0.125 0.125 0 0 1 14.125 13L15.875 13A0.125 0.125 0 0 0 16 12.875L16 11.125A0.125 0.125 0 0 0 15.875 11L15.125 11A0.125 0.125 0 0 0 15 11.125L15 11.875A0.125 0.125 0 0 1 14.875 12L14.125 12A0.125 0.125 0 0 1 14 11.875L14 11.125A0.125 0.125 0 0 0 13.875 11L13.125 11A0.125 0.125 0 0 1 13 10.875L13 10.125A0.125 0.125 0 0 1 13.125 10L13.875 10A0.125 0.125 0 0 0 14 9.875L14 8.125A0.125 0.125 0 0 0 13.875 8L13.125 8A0.125 0.125 0 0 1 13 7.875L13 7.125A0.125 0.125 0 0 1 13.125 7L13.875 7A0.125 0.125 0 0 0 14 6.875L14 6.125A0.125 0.125 0 0 0 13.875 6L13.125 6A0.125 0.125 0 0 0 13 6.125L13 6.875A0.125 0.125 0 0 1 12.875 7L12.125 7A0.125 0.125 0 0 1 12 6.875L12 5.125A0.125 0.125 0 0 1 12.125 5L12.875 5A0.125 0.125 0 0 0 13 4.875L13 4.125A0.125 0.125 0 0 0 12.875 4L12.125 4A0.125 0.125 0 0 0 12 4.125ZM16 4.125L16 4.875A0.125 0.125 0 0 0 16.125 5L16.875 5A0.125 0.125 0 0 0 17 4.875L17 4.125A0.125 0.125 0 0 0 16.875 4L16.125 4A0.125 0.125 0 0 0 16 4.125ZM15 8.125L15 8.875A0.125 0.125 0 0 0 15.125 9L15.875 9A0.125 0.125 0 0 0 16 8.875L16 8.125A0.125 0.125 0 0 0 15.875 8L15.125 8A0.125 0.125 0 0 0 15 8.125ZM12 9.125L12 9.875A0.125 0.125 0 0 0 12.125 10L12.875 10A0.125 0.125 0 0 0 13 9.875L13 9.125A0.125 0.125 0 0 0 12.875 9L12.125 9A0.125 0.125 0 0 0 12 9.125ZM22 10.125L22 10.875A0.125 0.125 0 0 0 22.125 11L23.875 11A0.125 0.125 0 0 0 24 10.875L24 10.125A0.125 0.125 0 0 0 23.875 10L22.125 10A0.125 0.125 0 0 0 22 10.125ZM3 11.125L3 12.875A0.125 0.125 0 0 0 3.125 13L3.875 13A0.125 0.125 0 0 0 4 12.875L4 12.125A0.125 0.125 0 0 1 4.125 12L4.875 12A0.125 0.125 0 0 0 5 11.875L5 11.125A0.125 0.125 0 0 0 4.875 11L3.125 11A0.125 0.125 0 0 0 3 11.125ZM6 12.125L6 12.875A0.125 0.125 0 0 0 6.125 13L6.875 13A0.125 0.125 0 0 0 7 12.875L7 12.125A0.125 0.125 0 0 0 6.875 12L6.125 12A0.125 0.125 0 0 0 6 12.125ZM16 14.125L16 14.875A0.125 0.125 0 0 0 16.125 15L16.875 15A0.125 0.125 0 0 0 17 14.875L17 14.125A0.125 0.125 0 0 0 16.875 14L16.125 14A0.125 0.125 0 0 0 16 14.125ZM6 15.125L6 15.875A0.125 0.125 0 0 0 6.125 16L6.875 16A0.125 0.125 0 0 0 7 15.875L7 15.125A0.125 0.125 0 0 0 6.875 15L6.125 15A0.125 0.125 0 0 0 6 15.125ZM20 15.125L20 15.875A0.125 0.125 0 0 0 20.125 16L20.875 16A0.125 0.125 0 0 0 21 15.875L21 15.125A0.125 0.125 0 0 0 20.875 15L20.125 15A0.125 0.125 0 0 0 20 15.125ZM23 15.125L23 15.875A0.125 0.125 0 0 0 23.125 16L23.875 16A0.125 0.125 0 0 0 24 15.875L24 15.125A0.125 0.125 0 0 0 23.875 15L23.125 15A0.125 0.125 0 0 0 23 15.125ZM9 16.125L9 16.875A0.125 0.125 0 0 0 9.125 17L9.875 17A0.125 0.125 0 0 0 10 16.875L10 16.125A0.125 0.125 0 0 0 9.875 16L9.125 16A0.125 0.125 0 0 0 9 16.125ZM17 17.125L17 19.875A0.125 0.125 0 0 0 17.125 20L19.875 20A0.125 0.125 0 0 0 20 19.875L20 17.125A0.125 0.125 0 0 0 19.875 17L17.125 17A0.125 0.125 0 0 0 17 17.125ZM12 18.125L12 18.875A0.125 0.125 0 0 0 12.125 19L12.875 19A0.125 0.125 0 0 0 13 18.875L13 18.125A0.125 0.125 0 0 0 12.875 18L12.125 18A0.125 0.125 0 0 0 12 18.125ZM18 18.125L18 18.875A0.125 0.125 0 0 0 18.125 19L18.875 19A0.125 0.125 0 0 0 19 18.875L19 18.125A0.125 0.125 0 0 0 18.875 18L18.125 18A0.125 0.125 0 0 0 18 18.125ZM8 20.125L8 21.875A0.125 0.125 0 0 0 8.125 22L8.875 22A0.125 0.125 0 0 1 9 22.125L9 22.875A0.125 0.125 0 0 1 8.875 23L8.125 23A0.125 0.125 0 0 0 8 23.125L8 24.875A0.125 0.125 0 0 0 8.125 25L8.875 25A0.125 0.125 0 0 0 9 24.875L9 23.125A0.125 0.125 0 0 1 9.125 23L9.875 23A0.125 0.125 0 0 1 10 23.125L10 23.875A0.125 0.125 0 0 0 10.125 24L10.875 24A0.125 0.125 0 0 0 11 23.875L11 22.125A0.125 0.125 0 0 0 10.875 22L9.125 22A0.125 0.125 0 0 1 9 21.875L9 20.125A0.125 0.125 0 0 0 8.875 20L8.125 20A0.125 0.125 0 0 0 8 20.125ZM10 20.125L10 20.875A0.125 0.125 0 0 0 10.125 21L10.875 21A0.125 0.125 0 0 0 11 20.875L11 20.125A0.125 0.125 0 0 0 10.875 20L10.125 20A0.125 0.125 0 0 0 10 20.125ZM14 22.125L14 22.875A0.125 0.125 0 0 0 14.125 23L14.875 23A0.125 0.125 0 0 1 15 23.125L15 23.875A0.125 0.125 0 0 0 15.125 24L16.875 24A0.125 0.125 0 0 0 17 23.875L17 23.125A0.125 0.125 0 0 0 16.875 23L16.125 23A0.125 0.125 0 0 1 16 22.875L16 22.125A0.125 0.125 0 0 0 15.875 22L14.125 22A0.125 0.125 0 0 0 14 22.125ZM21 23.125L21 23.875A0.125 0.125 0 0 0 21.125 24L21.875 24A0.125 0.125 0 0 0 22 23.875L22 23.125A0.125 0.125 0 0 0 21.875 23L21.125 23A0.125 0.125 0 0 0 21 23.125ZM0 7L0 3.5A3.5 3.5 0 0 1 3.5 0L7 0L7 7ZM6 3.5A2.5 2.5 0 0 1 3.5 6A2.5 2.5 0 0 1 1 3.5A2.5 2.5 0 0 1 3.5 1A2.5 2.5 0 0 1 6 3.5ZM2 2L5 2L5 5L2 5ZM18 0L21.5 0A3.5 3.5 0 0 1 25 3.5L25 7L18 7ZM21.5 6A2.5 2.5 0 0 1 19 3.5A2.5 2.5 0 0 1 21.5 1A2.5 2.5 0 0 1 24 3.5A2.5 2.5 0 0 1 21.5 6ZM23 2L23 5L20 5L20 2ZM7 25L3.5 25A3.5 3.5 0 0 1 0 21.5L0 18L7 18ZM3.5 19A2.5 2.5 0 0 1 6 21.5A2.5 2.5 0 0 1 3.5 24A2.5 2.5 0 0 1 1 21.5A2.5 2.5 0 0 1 3.5 19ZM2 23L2 20L5 20L5 23Z" fill="#000000"/></g></g></svg>
